<?xml version="1.0" standalone="no"?>
<!DOCTYPE svg PUBLIC "-//W3C//DTD SVG 20010904//EN"
 "http://www.w3.org/TR/2001/REC-SVG-20010904/DTD/svg10.dtd">
<svg version="1.0" xmlns="http://www.w3.org/2000/svg"
 width="500.000000pt" height="500.000000pt" viewBox="0 0 500.000000 500.000000"
 preserveAspectRatio="xMidYMid meet">
<metadata>
Created by potrace 1.11, written by Peter Selinger 2001-2013
</metadata>
<g transform="translate(0.000000,500.000000) scale(0.100000,-0.100000)"
fill="#000000" stroke="none">
<path d="M1825 4984 c-48 -17 -94 -56 -124 -106 -18 -30 -60 -208 -95 -398 -2
-14 -7 -36 -10 -50 -3 -14 -8 -36 -10 -50 -2 -14 -10 -47 -16 -75 -20 -87 -20
-143 3 -197 32 -78 107 -131 202 -143 11 -1 58 -9 105 -18 177 -33 213 -37
260 -25 86 23 169 109 184 193 14 74 18 93 27 135 6 25 13 56 15 70 2 14 7 36
10 50 3 14 8 35 10 48 5 25 8 45 41 206 24 120 12 179 -47 249 -39 45 -92 67
-218 88 -64 11 -130 22 -147 25 -74 13 -152 12 -190 -2z"/>
<path d="M3375 4727 c-27 -13 -63 -39 -80 -58 -73 -83 -384 -478 -400 -509
-27 -52 -25 -136 5 -195 22 -42 49 -68 175 -163 83 -62 166 -120 185 -129 19
-8 62 -16 95 -16 76 -1 136 26 187 85 105 121 382 477 395 507 32 76 17 178
-35 234 -25 27 -252 200 -315 240 -17 11 -55 20 -95 23 -57 4 -75 1 -117 -19z"/>
<path d="M4449 3827 c-57 -29 -126 -66 -154 -82 -131 -74 -201 -112 -215 -118
-8 -3 -46 -25 -85 -49 -104 -64 -147 -147 -130 -250 7 -41 192 -359 227 -389
56 -49 158 -74 228 -57 15 3 80 36 151 75 19 11 123 68 231 128 207 113 245
141 274 196 21 41 27 141 11 178 -18 40 -167 292 -195 329 -39 52 -103 84
-176 89 -61 4 -68 1 -167 -50z"/>
<path d="M1938 3716 c-1 -2 -34 -6 -73 -10 -87 -7 -107 -11 -225 -41 -723
-182 -1272 -644 -1515 -1274 -35 -91 -89 -285 -99 -361 -4 -25 -10 -72 -15
-105 -9 -62 -7 -409 2 -435 3 -8 8 -33 11 -55 17 -138 74 -323 145 -472 259
-542 781 -887 1436 -950 153 -15 454 -9 615 12 102 13 125 17 173 26 29 6 63
12 77 15 58 11 255 91 395 160 262 129 474 282 655 471 86 89 250 298 250 319
0 4 6 15 14 23 21 24 111 205 141 286 31 84 73 229 80 282 3 21 8 43 10 50 18
55 26 376 11 488 -13 108 -17 129 -37 210 -36 142 -72 238 -144 380 -177 347
-455 615 -823 791 -78 38 -266 108 -321 119 -9 2 -45 10 -81 19 -68 16 -92 20
-175 32 -27 3 -59 9 -70 11 -23 5 -431 13 -437 9z m347 -780 c230 -16 438
-104 595 -252 79 -75 142 -159 189 -251 32 -64 76 -186 85 -238 3 -17 9 -41
12 -55 14 -57 13 -287 -2 -374 -86 -520 -500 -903 -1051 -974 -112 -14 -402
-7 -491 11 -154 33 -315 103 -410 180 -48 38 -141 137 -172 182 -56 81 -120
226 -135 306 -3 13 -7 35 -10 49 -61 317 38 692 256 965 215 270 508 418 894
451 39 4 71 7 72 8 3 2 45 0 168 -8z"/>
</g>
</svg>
