<?xml version="1.0" encoding="UTF-8" standalone="no"?>
<svg
   xmlns:dc="http://purl.org/dc/elements/1.1/"
   xmlns:cc="http://creativecommons.org/ns#"
   xmlns:rdf="http://www.w3.org/1999/02/22-rdf-syntax-ns#"
   xmlns:svg="http://www.w3.org/2000/svg"
   xmlns="http://www.w3.org/2000/svg"
   xmlns:sodipodi="http://sodipodi.sourceforge.net/DTD/sodipodi-0.dtd"
   xmlns:inkscape="http://www.inkscape.org/namespaces/inkscape"
   aria-hidden="true"
   focusable="false"
   data-prefix="fas"
   data-icon="dollar-sign"
   class="svg-inline--fa fa-dollar-sign fa-w-9"
   role="img"
   viewBox="0 0 281.18961 500"
   version="1.1"
   id="svg4"
   sodipodi:docname="dollar.svg"
   inkscape:version="1.0.2 (e86c870879, 2021-01-15, custom)"
   width="281.18961"
   height="500">
  <metadata
     id="metadata10">
    <rdf:RDF>
      <cc:Work
         rdf:about="">
        <dc:format>image/svg+xml</dc:format>
        <dc:type
           rdf:resource="http://purl.org/dc/dcmitype/StillImage" />
        <dc:title></dc:title>
      </cc:Work>
    </rdf:RDF>
  </metadata>
  <defs
     id="defs8" />
  <sodipodi:namedview
     pagecolor="#ffffff"
     bordercolor="#666666"
     borderopacity="1"
     objecttolerance="10"
     gridtolerance="10"
     guidetolerance="10"
     inkscape:pageopacity="0"
     inkscape:pageshadow="2"
     inkscape:window-width="1326"
     inkscape:window-height="696"
     id="namedview6"
     showgrid="false"
     inkscape:zoom="0.8010194"
     inkscape:cx="57.018574"
     inkscape:cy="271.72298"
     inkscape:window-x="1386"
     inkscape:window-y="52"
     inkscape:window-maximized="0"
     inkscape:current-layer="svg4"
     inkscape:document-rotation="0"
     fit-margin-top="0"
     fit-margin-left="0"
     fit-margin-right="0"
     fit-margin-bottom="0" />
  <path
     fill="currentColor"
     d="M 204.2613,227.92969 98.792547,197.07031 c -12.207031,-3.51562 -20.703125,-14.9414 -20.703125,-27.63672 0,-15.91797 12.890625,-28.80859 28.808598,-28.80859 h 64.74609 c 11.91406,0 23.63281,3.61328 33.39844,10.25391 5.95703,4.0039 13.96484,3.02734 19.04297,-1.95313 l 33.98437,-33.20312 c 6.9336,-6.73828 5.95703,-17.968754 -1.75781,-23.925785 C 232.3863,73.046875 202.50349,62.597656 171.83942,62.5 V 15.625 C 171.83942,7.03125 164.80817,0 156.21442,0 h -31.25 c -8.59375,0 -15.625,7.03125 -15.625,15.625 V 62.5 h -2.4414 C 44.690984,62.5 -5.3090152,115.91797 0.45270356,179.29687 4.554266,224.31641 38.929266,260.9375 82.288641,273.63281 L 182.3863,302.92969 c 12.20703,3.61328 20.70312,14.9414 20.70312,27.63672 0,15.91796 -12.89062,28.80859 -28.80859,28.80859 h -64.74609 c -11.914068,0 -23.632818,-3.61328 -33.398443,-10.25391 -5.957031,-4.0039 -13.964844,-3.02734 -19.042969,1.95313 l -33.984375,33.20312 c -6.933594,6.73828 -5.957031,17.96875 1.757813,23.92578 23.925781,18.75 53.808593,29.19922 84.472654,29.29688 v 46.875 c 0,8.59375 7.03125,15.625 15.625,15.625 h 31.25 c 8.59375,0 15.625,-7.03125 15.625,-15.625 v -47.07031 c 45.50782,-0.87891 88.1836,-27.92969 103.22266,-70.9961 20.99609,-60.15625 -14.25781,-121.875 -70.80078,-138.3789 z"
     id="path2"
     style="opacity:0.985;fill:#ffffff;stroke-width:0.976562" />
</svg>
