<?xml version="1.0" encoding="UTF-8" standalone="no"?>
<svg
   xmlns:dc="http://purl.org/dc/elements/1.1/"
   xmlns:cc="http://creativecommons.org/ns#"
   xmlns:rdf="http://www.w3.org/1999/02/22-rdf-syntax-ns#"
   xmlns:svg="http://www.w3.org/2000/svg"
   xmlns="http://www.w3.org/2000/svg"
   xmlns:sodipodi="http://sodipodi.sourceforge.net/DTD/sodipodi-0.dtd"
   xmlns:inkscape="http://www.inkscape.org/namespaces/inkscape"
   aria-hidden="true"
   focusable="false"
   data-prefix="fas"
   data-icon="globe-americas"
   class="svg-inline--fa fa-globe-americas fa-w-16"
   role="img"
   viewBox="0 0 500 500"
   version="1.1"
   id="svg14"
   sodipodi:docname="globe.svg"
   inkscape:version="1.0.2 (e86c870879, 2021-01-15, custom)"
   width="500"
   height="500">
  <metadata
     id="metadata20">
    <rdf:RDF>
      <cc:Work
         rdf:about="">
        <dc:format>image/svg+xml</dc:format>
        <dc:type
           rdf:resource="http://purl.org/dc/dcmitype/StillImage" />
        <dc:title></dc:title>
      </cc:Work>
    </rdf:RDF>
  </metadata>
  <defs
     id="defs18" />
  <sodipodi:namedview
     pagecolor="#ffffff"
     bordercolor="#666666"
     borderopacity="1"
     objecttolerance="10"
     gridtolerance="10"
     guidetolerance="10"
     inkscape:pageopacity="0"
     inkscape:pageshadow="2"
     inkscape:window-width="1326"
     inkscape:window-height="696"
     id="namedview16"
     showgrid="false"
     inkscape:zoom="0.8010194"
     inkscape:cx="-44.401005"
     inkscape:cy="242.88089"
     inkscape:window-x="1386"
     inkscape:window-y="52"
     inkscape:window-maximized="0"
     inkscape:current-layer="svg14"
     inkscape:document-rotation="0"
     fit-margin-top="0"
     fit-margin-left="0"
     fit-margin-right="0"
     fit-margin-bottom="0" />
  <path
     fill="currentColor"
     d="M 250,0 C 111.9254,0 0,111.9254 0,250 0,388.0746 111.9254,500 250,500 388.0746,500 500,388.0746 500,250 500,111.9254 388.0746,0 250,0 Z m 82.95363,360.48387 c -3.93145,3.91129 -8.05444,8.01411 -11.40121,11.37097 -3.01411,3.02419 -5.14113,6.75403 -6.21976,10.79637 -1.52218,5.70564 -2.75201,11.47177 -4.80847,17.00605 l -17.53024,47.22782 C 279.12298,449.90927 264.76815,451.6129 250,451.6129 v -27.6008 c 1.70363,-12.72178 -7.70161,-36.55242 -22.8125,-51.66331 -6.04839,-6.04839 -9.44556,-14.25403 -9.44556,-22.8125 v -32.26814 c 0,-11.73388 -6.32057,-22.52017 -16.59275,-28.19557 -14.48588,-8.01411 -35.09072,-19.21371 -49.20363,-26.32056 -11.57258,-5.82662 -22.27822,-13.24597 -31.90524,-21.92541 l -0.80645,-0.7258 A 115.71774,115.71774 0 0 1 101.02823,219.19355 C 91.572581,205.3125 76.169355,182.47984 66.159274,167.64113 86.794355,121.77419 123.98185,84.939516 170.19153,64.929435 l 24.20363,12.106855 c 10.72581,5.362904 23.34678,-2.429435 23.34678,-14.425403 V 51.219758 c 8.05443,-1.300403 16.25,-2.127016 24.58669,-2.439516 l 28.52822,28.528226 c 6.30041,6.300403 6.30041,16.512092 0,22.812502 l -4.72782,4.71774 -10.42338,10.42339 c -3.14517,3.14516 -3.14517,8.25605 0,11.40121 l 4.72782,4.72782 c 3.14516,3.14516 3.14516,8.25605 0,11.40121 l -8.06452,8.06451 a 8.0725806,8.0725806 0 0 1 -5.70564,2.35888 h -9.0625 c -2.09678,0 -4.11291,0.81653 -5.625,2.2883 l -10,9.72782 a 8.0725806,8.0725806 0 0 0 -1.59275,9.38509 l 15.71573,31.44153 c 2.68145,5.3629 -1.21976,11.67338 -7.20766,11.67338 h -5.68548 c -1.94557,0 -3.82057,-0.70564 -5.28226,-1.9758 l -9.35484,-8.125 a 16.146169,16.146169 0 0 0 -15.6754,-3.125 l -31.42138,10.47379 a 12.046371,12.046371 0 0 0 -8.23588,11.43145 c 0,4.56653 2.58064,8.72984 6.6633,10.77621 l 11.16936,5.58468 c 9.48589,4.74798 19.9496,7.21774 30.55443,7.21774 10.60484,0 22.77218,27.51008 32.25807,32.25806 h 67.2883 c 8.55847,0 16.75404,3.39718 22.8125,9.44557 l 13.80041,13.8004 a 30.748992,30.748992 0 0 1 9.00201,21.74395 46.91129,46.91129 0 0 1 -13.83064,33.24597 z m 87.40927,-92.08669 c -5.83669,-1.4617 -10.92742,-5.04033 -14.26411,-10.05041 l -18.125,-27.1875 a 24.163306,24.163306 0 0 1 0,-26.83467 l 19.74798,-29.61694 c 2.33871,-3.49798 5.54436,-6.34072 9.31452,-8.21572 l 13.08468,-6.54234 C 443.75,187.08669 451.6129,217.61089 451.6129,250 c 0,8.73992 -0.74596,17.29839 -1.83467,25.74597 z"
     id="path12"
     style="fill:#ffffff;stroke-width:1.00806" />
</svg>
