<?xml version="1.0" encoding="UTF-8" standalone="no"?>
<svg
   xmlns:dc="http://purl.org/dc/elements/1.1/"
   xmlns:cc="http://creativecommons.org/ns#"
   xmlns:rdf="http://www.w3.org/1999/02/22-rdf-syntax-ns#"
   xmlns:svg="http://www.w3.org/2000/svg"
   xmlns="http://www.w3.org/2000/svg"
   xmlns:sodipodi="http://sodipodi.sourceforge.net/DTD/sodipodi-0.dtd"
   xmlns:inkscape="http://www.inkscape.org/namespaces/inkscape"
   aria-hidden="true"
   focusable="false"
   data-prefix="fas"
   data-icon="plus-circle"
   class="svg-inline--fa fa-plus-circle fa-w-16"
   role="img"
   viewBox="0 0 500 500"
   version="1.1"
   id="svg24"
   sodipodi:docname="plus.svg"
   inkscape:version="1.0.2 (e86c870879, 2021-01-15, custom)"
   width="500"
   height="500">
  <metadata
     id="metadata30">
    <rdf:RDF>
      <cc:Work
         rdf:about="">
        <dc:format>image/svg+xml</dc:format>
        <dc:type
           rdf:resource="http://purl.org/dc/dcmitype/StillImage" />
        <dc:title></dc:title>
      </cc:Work>
    </rdf:RDF>
  </metadata>
  <defs
     id="defs28" />
  <sodipodi:namedview
     pagecolor="#ffffff"
     bordercolor="#666666"
     borderopacity="1"
     objecttolerance="10"
     gridtolerance="10"
     guidetolerance="10"
     inkscape:pageopacity="0"
     inkscape:pageshadow="2"
     inkscape:window-width="1326"
     inkscape:window-height="696"
     id="namedview26"
     showgrid="false"
     inkscape:zoom="0.8010194"
     inkscape:cx="-148.83763"
     inkscape:cy="224.56238"
     inkscape:window-x="1386"
     inkscape:window-y="52"
     inkscape:window-maximized="0"
     inkscape:current-layer="svg24"
     inkscape:document-rotation="0"
     fit-margin-top="0"
     fit-margin-left="0"
     fit-margin-right="0"
     fit-margin-bottom="0" />
  <path
     fill="currentColor"
     d="M 250,0 C 111.89516,0 0,111.89516 0,250 0,388.10484 111.89516,500 250,500 388.10484,500 500,388.10484 500,250 500,111.89516 388.10484,0 250,0 Z m 145.16129,278.22581 c 0,6.65322 -5.44355,12.09677 -12.09677,12.09677 h -92.74194 v 92.74194 c 0,6.65322 -5.44355,12.09677 -12.09677,12.09677 h -56.45162 c -6.65322,0 -12.09677,-5.44355 -12.09677,-12.09677 v -92.74194 h -92.74194 c -6.65322,0 -12.09677,-5.44355 -12.09677,-12.09677 v -56.45162 c 0,-6.65322 5.44355,-12.09677 12.09677,-12.09677 h 92.74194 v -92.74194 c 0,-6.65322 5.44355,-12.09677 12.09677,-12.09677 h 56.45162 c 6.65322,0 12.09677,5.44355 12.09677,12.09677 v 92.74194 h 92.74194 c 6.65322,0 12.09677,5.44355 12.09677,12.09677 z"
     id="path22"
     style="fill:#ffffff;stroke-width:1.00806" />
</svg>
